#tb 0: 1/25
#media_type 0: video
#codec_id 0: rawvideo
#dimensions 0: 352x288
#sar 0: 0/1
0,          0,          0,        1,   152064, 0x658db81b
0,          1,          1,        1,   152064, 0x10e5afd1
0,          2,          2,        1,   152064, 0xb7703468
0,          3,          3,        1,   152064, 0x7eb8d1f9
0,          4,          4,        1,   152064, 0xa1daf9a4
0,          5,          5,        1,   152064, 0x20e6fa5e
0,          6,          6,        1,   152064, 0xd53ec35c
0,          7,          7,        1,   152064, 0xe0efe5f3
0,          8,          8,        1,   152064, 0x3cc1c8bf
0,          9,          9,        1,   152064, 0xfc7c7e53
0,         10,         10,        1,   152064, 0x58447f31
0,         11,         11,        1,   152064, 0x28983ef5
0,         12,         12,        1,   152064, 0x2419e334
0,         13,         13,        1,   152064, 0x18cbde29
0,         14,         14,        1,   152064, 0x8e0fd33a
0,         15,         15,        1,   152064, 0x0449705a
0,         16,         16,        1,   152064, 0x3615a948
0,         17,         17,        1,   152064, 0x27a6796c
0,         18,         18,        1,   152064, 0xba50b587
0,         19,         19,        1,   152064, 0xe5d92f03
0,         20,         20,        1,   152064, 0xabd147ad
0,         21,         21,        1,   152064, 0x78ee63e7
0,         22,         22,        1,   152064, 0x83745227
0,         23,         23,        1,   152064, 0x154fb6e2
0,         24,         24,        1,   152064, 0xd8174758
0,         25,         25,        1,   152064, 0xbd5be691
0,         26,         26,        1,   152064, 0x1fb0d7ef
0,         27,         27,        1,   152064, 0x9d5319b8
0,         28,         28,        1,   152064, 0x147bdb29
0,         29,         29,        1,   152064, 0x3b32aaf8
0,         30,         30,        1,   152064, 0x6b07ab64
0,         31,         31,        1,   152064, 0xe1e1fda1
0,         32,         32,        1,   152064, 0x56d24201
0,         33,         33,        1,   152064, 0x4996db6c
0,         34,         34,        1,   152064, 0xc1c47a5e
0,         35,         35,        1,   152064, 0x862fdde3
0,         36,         36,        1,   152064, 0xa20a7db1
0,         37,         37,        1,   152064, 0xc6325471
0,         38,         38,        1,   152064, 0x5243a798
0,         39,         39,        1,   152064, 0xd57c812c
0,         40,         40,        1,   152064, 0x48d09588
0,         41,         41,        1,   152064, 0x5a47d66c
0,         42,         42,        1,   152064, 0x87150bab
0,         43,         43,        1,   152064, 0x3788516e
0,         44,         44,        1,   152064, 0xe9073758
0,         45,         45,        1,   152064, 0xb5edbc65
0,         46,         46,        1,   152064, 0x4e63a708
0,         47,         47,        1,   152064, 0x88810d59
0,         48,         48,        1,   152064, 0x6b3de995
0,         49,         49,        1,   152064, 0x36a20d06
